<svg width="160" height="28" viewBox="0 0 160 28" fill="none" xmlns="http://www.w3.org/2000/svg">
<path d="M3.414 15.778C2.5 16 2 17.192 2 17.192C2 17.192 5.398 17.626 6.949 19.313C8.5 21 9.071 24.263 9.071 24.263C9.071 24.263 10.47 24.698 10.485 22.849C10.5 21 9.778 19.313 9.778 19.313L13.091 16L16.701 23.704C16.701 23.704 18.08 24.23 18.04 22.365C18 20.5 16.85 12.242 16.85 12.242L19.678 9.413C19.869 9.22851 20.0214 9.00782 20.1262 8.76381C20.231 8.5198 20.2862 8.25736 20.2885 7.99181C20.2908 7.72625 20.2402 7.46289 20.1396 7.21709C20.0391 6.9713 19.8906 6.748 19.7028 6.56021C19.515 6.37243 19.2917 6.22392 19.0459 6.12336C18.8001 6.0228 18.5368 5.97219 18.2712 5.9745C18.0056 5.97681 17.7432 6.03198 17.4992 6.1368C17.2552 6.24162 17.0345 6.39398 16.85 6.585L13.947 9.488C13.947 9.488 6.148 8.09401 3.824 8.297C1.5 8.5 2.559 9.563 2.559 9.563L10.203 13.233L6.95 16.486C6.95 16.486 4.328 15.556 3.414 15.778Z" fill="#2F80ED"/>
<path d="M39.34 6.96V9.7H35.62V21H32.2V9.7H28.48V6.96H39.34ZM44.4764 11.7C44.8764 11.0867 45.3764 10.6067 45.9764 10.26C46.5764 9.9 47.2431 9.72 47.9764 9.72V13.34H47.0364C46.1831 13.34 45.5431 13.5267 45.1164 13.9C44.6897 14.26 44.4764 14.9 44.4764 15.82V21H41.0564V9.84H44.4764V11.7ZM48.9311 15.4C48.9311 14.2533 49.1444 13.2467 49.5711 12.38C50.0111 11.5133 50.6044 10.8467 51.3511 10.38C52.0978 9.91333 52.9311 9.68 53.8511 9.68C54.6378 9.68 55.3244 9.84 55.9111 10.16C56.5111 10.48 56.9711 10.9 57.2911 11.42V9.84H60.7111V21H57.2911V19.42C56.9578 19.94 56.4911 20.36 55.8911 20.68C55.3044 21 54.6178 21.16 53.8311 21.16C52.9244 21.16 52.0978 20.9267 51.3511 20.46C50.6044 19.98 50.0111 19.3067 49.5711 18.44C49.1444 17.56 48.9311 16.5467 48.9311 15.4ZM57.2911 15.42C57.2911 14.5667 57.0511 13.8933 56.5711 13.4C56.1044 12.9067 55.5311 12.66 54.8511 12.66C54.1711 12.66 53.5911 12.9067 53.1111 13.4C52.6444 13.88 52.4111 14.5467 52.4111 15.4C52.4111 16.2533 52.6444 16.9333 53.1111 17.44C53.5911 17.9333 54.1711 18.18 54.8511 18.18C55.5311 18.18 56.1044 17.9333 56.5711 17.44C57.0511 16.9467 57.2911 16.2733 57.2911 15.42ZM68.2053 17.8L70.6253 9.84H74.2653L70.3053 21H66.0853L62.1253 9.84H65.7853L68.2053 17.8ZM86.2248 15.24C86.2248 15.56 86.2048 15.8933 86.1648 16.24H78.4248C78.4782 16.9333 78.6982 17.4667 79.0848 17.84C79.4848 18.2 79.9715 18.38 80.5448 18.38C81.3982 18.38 81.9915 18.02 82.3248 17.3H85.9648C85.7782 18.0333 85.4382 18.6933 84.9448 19.28C84.4648 19.8667 83.8582 20.3267 83.1248 20.66C82.3915 20.9933 81.5715 21.16 80.6648 21.16C79.5715 21.16 78.5982 20.9267 77.7448 20.46C76.8915 19.9933 76.2248 19.3267 75.7448 18.46C75.2648 17.5933 75.0248 16.58 75.0248 15.42C75.0248 14.26 75.2582 13.2467 75.7248 12.38C76.2048 11.5133 76.8715 10.8467 77.7248 10.38C78.5782 9.91333 79.5582 9.68 80.6648 9.68C81.7448 9.68 82.7048 9.90667 83.5448 10.36C84.3848 10.8133 85.0382 11.46 85.5048 12.3C85.9848 13.14 86.2248 14.12 86.2248 15.24ZM82.7248 14.34C82.7248 13.7533 82.5248 13.2867 82.1248 12.94C81.7248 12.5933 81.2248 12.42 80.6248 12.42C80.0515 12.42 79.5648 12.5867 79.1648 12.92C78.7782 13.2533 78.5382 13.7267 78.4448 14.34H82.7248ZM91.4491 6.2V21H88.0291V6.2H91.4491ZM102.428 13.8C103.241 13.9733 103.894 14.38 104.388 15.02C104.881 15.6467 105.128 16.3667 105.128 17.18C105.128 18.3533 104.714 19.2867 103.888 19.98C103.074 20.66 101.934 21 100.468 21H93.9275V6.96H100.248C101.674 6.96 102.788 7.28667 103.588 7.94C104.401 8.59333 104.808 9.48 104.808 10.6C104.808 11.4267 104.588 12.1133 104.148 12.66C103.721 13.2067 103.148 13.5867 102.428 13.8ZM97.3475 12.64H99.5875C100.148 12.64 100.574 12.52 100.868 12.28C101.174 12.0267 101.328 11.66 101.328 11.18C101.328 10.7 101.174 10.3333 100.868 10.08C100.574 9.82667 100.148 9.7 99.5875 9.7H97.3475V12.64ZM99.8675 18.24C100.441 18.24 100.881 18.1133 101.188 17.86C101.508 17.5933 101.668 17.2133 101.668 16.72C101.668 16.2267 101.501 15.84 101.168 15.56C100.848 15.28 100.401 15.14 99.8275 15.14H97.3475V18.24H99.8675ZM118.131 9.84V21H114.711V19.48C114.364 19.9733 113.891 20.3733 113.291 20.68C112.704 20.9733 112.051 21.12 111.331 21.12C110.478 21.12 109.724 20.9333 109.071 20.56C108.418 20.1733 107.911 19.62 107.551 18.9C107.191 18.18 107.011 17.3333 107.011 16.36V9.84H110.411V15.9C110.411 16.6467 110.604 17.2267 110.991 17.64C111.378 18.0533 111.898 18.26 112.551 18.26C113.218 18.26 113.744 18.0533 114.131 17.64C114.518 17.2267 114.711 16.6467 114.711 15.9V9.84H118.131ZM119.908 15.4C119.908 14.2533 120.121 13.2467 120.548 12.38C120.988 11.5133 121.581 10.8467 122.328 10.38C123.074 9.91333 123.908 9.68 124.828 9.68C125.561 9.68 126.228 9.83333 126.828 10.14C127.441 10.4467 127.921 10.86 128.268 11.38V6.2H131.688V21H128.268V19.4C127.948 19.9333 127.488 20.36 126.888 20.68C126.301 21 125.614 21.16 124.828 21.16C123.908 21.16 123.074 20.9267 122.328 20.46C121.581 19.98 120.988 19.3067 120.548 18.44C120.121 17.56 119.908 16.5467 119.908 15.4ZM128.268 15.42C128.268 14.5667 128.028 13.8933 127.548 13.4C127.081 12.9067 126.508 12.66 125.828 12.66C125.148 12.66 124.568 12.9067 124.088 13.4C123.621 13.88 123.388 14.5467 123.388 15.4C123.388 16.2533 123.621 16.9333 124.088 17.44C124.568 17.9333 125.148 18.18 125.828 18.18C126.508 18.18 127.081 17.9333 127.548 17.44C128.028 16.9467 128.268 16.2733 128.268 15.42ZM133.482 15.4C133.482 14.2533 133.695 13.2467 134.122 12.38C134.562 11.5133 135.155 10.8467 135.902 10.38C136.649 9.91333 137.482 9.68 138.402 9.68C139.135 9.68 139.802 9.83333 140.402 10.14C141.015 10.4467 141.495 10.86 141.842 11.38V6.2H145.262V21H141.842V19.4C141.522 19.9333 141.062 20.36 140.462 20.68C139.875 21 139.189 21.16 138.402 21.16C137.482 21.16 136.649 20.9267 135.902 20.46C135.155 19.98 134.562 19.3067 134.122 18.44C133.695 17.56 133.482 16.5467 133.482 15.4ZM141.842 15.42C141.842 14.5667 141.602 13.8933 141.122 13.4C140.655 12.9067 140.082 12.66 139.402 12.66C138.722 12.66 138.142 12.9067 137.662 13.4C137.195 13.88 136.962 14.5467 136.962 15.4C136.962 16.2533 137.195 16.9333 137.662 17.44C138.142 17.9333 138.722 18.18 139.402 18.18C140.082 18.18 140.655 17.9333 141.122 17.44C141.602 16.9467 141.842 16.2733 141.842 15.42ZM159.136 9.84L152.136 26.3H148.456L151.016 20.62L146.476 9.84H150.296L152.876 16.82L155.436 9.84H159.136Z" fill="black"/>
</svg>
